<svg width="30" height="31" viewBox="0 0 30 31" fill="none" xmlns="http://www.w3.org/2000/svg">
<path d="M27.045 23.0803L21.4556 17.9983C21.1916 17.7578 20.8443 17.6295 20.4874 17.6406C20.1304 17.6516 19.7917 17.8011 19.543 18.0574L16.2526 21.4413C15.4606 21.29 13.8684 20.7937 12.2294 19.1588C10.5904 17.5184 10.094 15.922 9.94689 15.1355L13.328 11.8438C13.5843 11.5951 13.7338 11.2564 13.7449 10.8994C13.7559 10.5425 13.6276 10.1952 13.3871 9.93115L8.30651 4.34315C8.06595 4.07827 7.7316 3.9176 7.37447 3.89526C7.01735 3.87293 6.66558 3.99068 6.39389 4.22353L3.41014 6.7824C3.17242 7.02099 3.03053 7.33852 3.01139 7.67478C2.99076 8.01853 2.59751 16.1613 8.91151 22.478C14.4198 27.9849 21.3195 28.3878 23.2198 28.3878C23.4975 28.3878 23.668 28.3795 23.7134 28.3768C24.0493 28.3569 24.3664 28.2146 24.6044 27.9767L27.1619 24.9915C27.3957 24.7207 27.5143 24.3692 27.4924 24.0121C27.4706 23.655 27.31 23.3206 27.045 23.0803Z" fill="#EEEEEE"/>
</svg>
