<svg width="30" height="31" viewBox="0 0 30 31" fill="none" xmlns="http://www.w3.org/2000/svg">
<path d="M5 25.8926C4.3125 25.8926 3.72417 25.648 3.235 25.1588C2.74583 24.6697 2.50083 24.0809 2.5 23.3926V8.39258C2.5 7.70508 2.745 7.11674 3.235 6.62758C3.725 6.13841 4.31333 5.89341 5 5.89258H25C25.6875 5.89258 26.2763 6.13758 26.7663 6.62758C27.2563 7.11758 27.5008 7.70591 27.5 8.39258V23.3926C27.5 24.0801 27.2554 24.6688 26.7663 25.1588C26.2771 25.6488 25.6883 25.8934 25 25.8926H5ZM15 17.1426L25 10.8926V8.39258L15 14.6426L5 8.39258V10.8926L15 17.1426Z" fill="#EEEEEE"/>
</svg>
