<svg width="30" height="31" viewBox="0 0 30 31" fill="none" xmlns="http://www.w3.org/2000/svg">
<path d="M8.67505 7.14188C8.67472 7.80492 8.41101 8.44067 7.94193 8.90928C7.47286 9.37788 6.83684 9.64096 6.1738 9.64062C5.51076 9.64029 4.875 9.37658 4.4064 8.90751C3.93779 8.43843 3.67472 7.80242 3.67505 7.13938C3.67538 6.47633 3.93909 5.84058 4.40817 5.37197C4.87724 4.90337 5.51326 4.64029 6.1763 4.64063C6.83934 4.64096 7.47509 4.90467 7.9437 5.37374C8.41231 5.84282 8.67538 6.47883 8.67505 7.14188ZM8.75005 11.4919H3.75005V27.1419H8.75005V11.4919ZM16.65 11.4919H11.675V27.1419H16.6V18.9294C16.6 14.3544 22.5625 13.9294 22.5625 18.9294V27.1419H27.5V17.2294C27.5 9.51687 18.675 9.80437 16.6 13.5919L16.65 11.4919Z" fill="#EEEEEE"/>
</svg>
